#N canvas 414 48 644 545 10;
#X obj 169 16 netreceive 3001 1;
#X obj 199 528 noteout;
#X msg 44 417 60;
#X msg 97 415 62;
#X msg 152 414 64;
#X msg 202 414 65;
#X msg 255 414 67;
#X msg 311 414 69;
#X msg 369 415 71;
#X obj 176 42 unpack f f;
#X floatatom 173 66 5 0 0 0 - - -;
#X floatatom 277 46 5 0 0 0 - - -;
#X obj 152 98 moses 1;
#X obj 178 148 moses 2;
#X obj 220 198 moses 3;
#X obj 266 241 moses 4;
#X obj 315 284 moses 5;
#X obj 361 320 moses 6;
#X obj 428 367 moses 7;
#X msg 437 416 0;
#X text 292 17 netreceive: portnumber \, tcp(0) or udp(1);
#X obj 198 484 makenote 100 700;
#X connect 0 0 9 0;
#X connect 2 0 21 0;
#X connect 3 0 21 0;
#X connect 4 0 21 0;
#X connect 5 0 21 0;
#X connect 6 0 21 0;
#X connect 7 0 21 0;
#X connect 8 0 21 0;
#X connect 9 0 10 0;
#X connect 9 1 11 0;
#X connect 10 0 12 0;
#X connect 12 0 2 0;
#X connect 12 1 13 0;
#X connect 13 0 3 0;
#X connect 13 1 14 0;
#X connect 14 0 4 0;
#X connect 14 1 15 0;
#X connect 15 0 5 0;
#X connect 15 1 16 0;
#X connect 16 0 6 0;
#X connect 16 1 17 0;
#X connect 17 0 7 0;
#X connect 17 1 18 0;
#X connect 18 0 8 0;
#X connect 18 1 19 0;
#X connect 21 0 1 0;
#X connect 21 1 1 1;
