#N canvas 17 0 1263 711 10;
#X obj 605 -89 tgl 15 0 empty empty empty 17 7 0 10 -262144 -1 -1 2
2;
#X msg 605 -67 \; pd dsp \$1;
#N canvas 0 0 450 300 (subpatch) 0;
#X array song1L 4e+006 float 2;
#X coords 0 1 4e+006 -1 200 80 1;
#X restore 6 5 graph;
#N canvas 0 0 450 300 (subpatch) 0;
#X array song1R 4e+006 float 2;
#X coords 0 1 4e+006 -1 200 80 1;
#X restore 209 5 graph;
#X obj 140 194 soundfiler;
#X floatatom 159 225 25 0 0 0 - - -;
#X obj 140 272 expr 44100 / $f1;
#X floatatom 159 302 25 0 0 0 - - -;
#X obj 140 326 phasor~;
#X obj 140 370 *~;
#X obj 140 507 *~;
#X obj 184 507 *~;
#X obj 607 577 dac~ 1 2;
#X obj 216 471 vsl 30 50 0 1 0 0 empty empty empty 0 -9 0 10 -262144
-1 -1 0 1;
#X text 246 471 Volume from 0-1;
#X obj 319 318 metro 50;
#X obj 319 340 snapshot~;
#X floatatom 319 361 17 0 0 0 - - -;
#X obj 319 399 /;
#X floatatom 319 421 5 0 0 0 - - -;
#X obj 212 87 hsl 195 15 0 1 0 0 empty empty empty -2 -8 0 10 -257985
-1 -1 16866 1;
#X obj 366 184 hsl 100 15 0 0.5 0 0 empty empty empty -2 -8 0 10 -262144
-1 -1 238 1;
#X floatatom 363 204 5 0 0 0 - - -;
#X text 360 165 Speed;
#X obj 712 -121 netreceive 3001 1;
#X obj 665 -95 print;
#X floatatom 714 -57 5 0 0 0 - - -;
#X floatatom 749 -57 5 0 0 0 - - -;
#X floatatom 785 -57 5 0 0 0 - - -;
#X obj 410 206 - 80;
#X floatatom 400 263 10 0 0 0 - - -;
#X msg 510 127 open letitsnow.aiff;
#X obj 94 -34 cnv 20 200 20 empty empty CHANNEL_SONG_1 20 12 0 14 -257985
-16662 0;
#X obj 9 87 hsl 195 15 0 1 0 0 empty empty empty -2 -8 0 10 -257985
-1 -1 16866 1;
#N canvas 0 0 450 300 (subpatch) 0;
#X array song2L 4e+006 float 2;
#X coords 0 1 4e+006 -1 200 80 1;
#X restore 486 5 graph;
#N canvas 0 0 450 300 (subpatch) 0;
#X array song2R 4e+006 float 2;
#X coords 0 1 4e+006 -1 200 80 1;
#X restore 689 5 graph;
#X obj 692 87 hsl 195 15 0 1 0 0 empty empty empty -2 -8 0 10 -4034
-1 -1 4909 1;
#X obj 575 -34 cnv 20 200 20 empty empty CHANNEL_SONG_2 20 12 0 14
-4034 -16662 0;
#X obj 489 87 hsl 195 15 0 1 0 0 empty empty empty -2 -8 0 10 -4034
-1 -1 4909 1;
#N canvas 0 0 450 300 (subpatch) 0;
#X array song3L 2.66227e+006 float 2;
#X coords 0 1 2.66227e+006 -1 200 80 1;
#X restore 976 5 graph;
#N canvas 0 0 450 300 (subpatch) 0;
#X array song3R 2.66227e+006 float 2;
#X coords 0 1 2.66227e+006 -1 200 80 1;
#X restore 1179 5 graph;
#X obj 1182 87 hsl 195 15 0 1 0 0 empty empty empty -2 -8 0 10 -4032
-1 -1 2231 1;
#X obj 1065 -34 cnv 20 200 20 empty empty CHANNEL_SONG_3 20 12 0 14
-4032 -16662 0;
#X obj 979 87 hsl 195 15 0 1 0 0 empty empty empty -2 -8 0 10 -4032
-1 -1 2231 1;
#X msg 140 165 read -resize \$1 song1L song1R;
#X obj 139 412 tabread4~ song1L;
#X obj 185 436 tabread4~ song1R;
#X msg 980 128 open feliz_navidad.aiff;
#X msg 140 125 open jingle_bell_rock_half.aiff;
#X obj 510 195 soundfiler;
#X floatatom 529 226 25 0 0 0 - - -;
#X obj 510 273 expr 44100 / $f1;
#X floatatom 529 303 25 0 0 0 - - -;
#X obj 510 327 phasor~;
#X obj 510 371 *~;
#X obj 510 508 *~;
#X obj 554 508 *~;
#X obj 583 472 vsl 30 50 0 1 0 0 empty empty empty 0 -9 0 10 -262144
-1 -1 0 1;
#X text 616 472 Volume from 0-1;
#X obj 728 320 metro 50;
#X obj 728 342 snapshot~;
#X floatatom 728 363 17 0 0 0 - - -;
#X obj 728 401 /;
#X floatatom 728 423 5 0 0 0 - - -;
#X obj 736 185 hsl 100 15 0 0.5 0 0 empty empty empty -2 -8 0 10 -262144
-1 -1 218 1;
#X floatatom 733 205 5 0 0 0 - - -;
#X text 730 166 Speed;
#X obj 780 207 - 80;
#X floatatom 770 264 10 0 0 0 - - -;
#X msg 510 166 read -resize \$1 song2L song2R;
#X obj 509 413 tabread4~ song2L;
#X obj 555 437 tabread4~ song2R;
#X obj 980 195 soundfiler;
#X floatatom 999 226 25 0 0 0 - - -;
#X obj 980 273 expr 44100 / $f1;
#X floatatom 1034 298 25 0 0 0 - - -;
#X obj 980 327 phasor~;
#X obj 980 371 *~;
#X obj 980 508 *~;
#X obj 1024 508 *~;
#X obj 1054 471 vsl 30 50 0 1 0 0 empty empty empty 0 -9 0 10 -262144
-1 -1 0 1;
#X text 1086 472 Volume from 0-1;
#X obj 1198 320 metro 50;
#X obj 1198 342 snapshot~;
#X floatatom 1198 363 17 0 0 0 - - -;
#X obj 1198 401 /;
#X floatatom 1198 423 5 0 0 0 - - -;
#X obj 1206 185 hsl 100 15 0 0.5 0 0 empty empty empty -2 -8 0 10 -262144
-1 -1 328 1;
#X floatatom 1203 205 5 0 0 0 - - -;
#X text 1200 166 Speed;
#X obj 1250 207 - 80;
#X floatatom 1240 264 10 0 0 0 - - -;
#X obj 1025 436 tabread4~ song3R;
#X obj 979 413 tabread4~ song3L;
#X msg 981 166 read -resize \$1 song3L song3R;
#X obj 1250 228 + 0.0165648;
#X floatatom 821 -57 5 0 0 0 - - -;
#X floatatom 858 -57 5 0 0 0 - - -;
#X floatatom 894 -57 5 0 0 0 - - -;
#X floatatom 930 -57 5 0 0 0 - - -;
#X obj 93 -86 bng 15 250 50 0 empty empty empty 17 7 0 10 -262144 -1
-1;
#X obj 28 -122 cnv 25 415 30 empty empty Click_button_to_initiate_songs_wait_10s
20 12 0 17 -258113 -66577 0;
#X obj 485 -122 cnv 26 145 26 empty empty AUDIO_ON/OFF 20 12 0 16 -232576
-258113 0;
#X msg 1036 326 0;
#X msg 195 326 0;
#X msg 565 327 0;
#X obj 159 248 s sampleSize1;
#X obj 529 249 s sampleSize2;
#X obj 999 249 s sampleSize3;
#X obj 1226 382 r sampleSize3;
#X obj 1022 354 r sampleSize3;
#X obj 552 354 r sampleSize2;
#X obj 756 382 r sampleSize2;
#X obj 347 380 r sampleSize1;
#X obj 182 353 r sampleSize1;
#X obj 28 -91 cnv 25 60 25 empty empty ---> 20 12 0 17 -258113 -66577
0;
#X obj 484 -95 cnv 26 110 26 empty empty TOGGLE--> 20 12 0 14 -232576
-258113 0;
#X obj 410 228 + 0.011025;
#X obj 780 229 + 0.011025;
#X obj 712 -98 unpack f f f f f f f f;
#X floatatom 966 -57 5 0 0 0 - - -;
#X text 852 -111 <<< current_f_id \, freq s1 \, freq s2 \, freq s3
\, vol s1 \, vol s2 \, vol s3 \, window#;
#X obj 437 -39 moses 2;
#X obj 880 351 select 1;
#X connect 0 0 1 0;
#X connect 4 0 5 0;
#X connect 4 0 6 0;
#X connect 5 0 106 0;
#X connect 6 0 7 0;
#X connect 6 0 8 0;
#X connect 8 0 9 0;
#X connect 9 0 16 0;
#X connect 9 0 45 0;
#X connect 9 0 46 0;
#X connect 10 0 12 0;
#X connect 11 0 12 1;
#X connect 13 0 11 1;
#X connect 13 0 10 1;
#X connect 15 0 16 0;
#X connect 16 0 17 0;
#X connect 17 0 18 0;
#X connect 18 0 19 0;
#X connect 19 0 20 0;
#X connect 19 0 33 0;
#X connect 21 0 22 0;
#X connect 22 0 8 0;
#X connect 24 0 25 0;
#X connect 24 0 119 0;
#X connect 27 0 29 0;
#X connect 28 0 67 0;
#X connect 29 0 117 0;
#X connect 30 0 8 0;
#X connect 31 0 69 0;
#X connect 44 0 4 0;
#X connect 45 0 10 0;
#X connect 46 0 11 0;
#X connect 47 0 94 0;
#X connect 48 0 44 0;
#X connect 49 0 50 0;
#X connect 49 0 51 0;
#X connect 50 0 107 0;
#X connect 51 0 52 0;
#X connect 51 0 53 0;
#X connect 53 0 54 0;
#X connect 54 0 60 0;
#X connect 54 0 70 0;
#X connect 54 0 71 0;
#X connect 55 0 12 0;
#X connect 56 0 12 1;
#X connect 57 0 56 1;
#X connect 57 0 55 1;
#X connect 59 0 60 0;
#X connect 60 0 61 0;
#X connect 61 0 62 0;
#X connect 62 0 63 0;
#X connect 63 0 38 0;
#X connect 63 0 36 0;
#X connect 64 0 65 0;
#X connect 65 0 53 0;
#X connect 67 0 118 0;
#X connect 68 0 53 0;
#X connect 69 0 49 0;
#X connect 70 0 55 0;
#X connect 71 0 56 0;
#X connect 72 0 73 0;
#X connect 72 0 74 0;
#X connect 73 0 108 0;
#X connect 74 0 75 0;
#X connect 74 0 76 0;
#X connect 76 0 77 0;
#X connect 77 0 83 0;
#X connect 77 0 92 0;
#X connect 77 0 93 0;
#X connect 78 0 12 0;
#X connect 79 0 12 1;
#X connect 80 0 79 1;
#X connect 80 0 78 1;
#X connect 82 0 83 0;
#X connect 83 0 84 0;
#X connect 84 0 85 0;
#X connect 85 0 86 0;
#X connect 86 0 43 0;
#X connect 86 0 41 0;
#X connect 87 0 88 0;
#X connect 88 0 76 0;
#X connect 90 0 95 0;
#X connect 91 0 76 0;
#X connect 92 0 79 0;
#X connect 93 0 78 0;
#X connect 94 0 72 0;
#X connect 95 0 91 0;
#X connect 95 0 87 0;
#X connect 96 0 90 0;
#X connect 97 0 13 0;
#X connect 98 0 57 0;
#X connect 99 0 80 0;
#X connect 100 0 48 0;
#X connect 100 0 31 0;
#X connect 100 0 47 0;
#X connect 100 0 15 0;
#X connect 100 0 59 0;
#X connect 100 0 82 0;
#X connect 103 0 76 1;
#X connect 104 0 8 1;
#X connect 105 0 53 1;
#X connect 109 0 85 1;
#X connect 110 0 77 1;
#X connect 111 0 54 1;
#X connect 112 0 62 1;
#X connect 113 0 18 1;
#X connect 114 0 9 1;
#X connect 117 0 30 0;
#X connect 117 0 21 0;
#X connect 118 0 68 0;
#X connect 118 0 64 0;
#X connect 119 0 26 0;
#X connect 119 1 27 0;
#X connect 119 2 28 0;
#X connect 119 3 96 0;
#X connect 119 4 97 0;
#X connect 119 5 98 0;
#X connect 119 6 99 0;
#X connect 119 7 120 0;
#X connect 120 0 122 0;
#X connect 122 1 0 0;
#X connect 122 1 100 0;
